<svg id="Capa_1" enable-background="new 0 0 512 512" height="512" viewBox="0 0 512 512" width="512" xmlns="http://www.w3.org/2000/svg"><g><path d="m139.114 99.264h-51.858c-5.124 0-9.292 4.168-9.292 9.292v133.876c0 5.124 4.168 9.292 9.292 9.292h51.858c5.124 0 9.292-4.168 9.292-9.292v-13.197c0-4.142-3.358-7.5-7.5-7.5s-7.5 3.358-7.5 7.5v7.488h-40.442v-122.459h40.441v79.971c0 4.142 3.358 7.5 7.5 7.5s7.5-3.358 7.5-7.5v-85.68c.001-5.123-4.167-9.291-9.291-9.291z"/><path d="m140.906 266.724h-55.442c-4.142 0-7.5 3.358-7.5 7.5s3.358 7.5 7.5 7.5h55.441c4.142 0 7.5-3.358 7.5-7.5s-3.357-7.5-7.499-7.5z"/><path d="m140.906 296.724h-55.442c-4.142 0-7.5 3.358-7.5 7.5s3.358 7.5 7.5 7.5h55.441c4.142 0 7.5-3.358 7.5-7.5s-3.357-7.5-7.499-7.5z"/><path d="m140.906 326.724h-55.442c-4.142 0-7.5 3.358-7.5 7.5s3.358 7.5 7.5 7.5h55.441c4.142 0 7.5-3.358 7.5-7.5s-3.357-7.5-7.499-7.5z"/><path d="m140.906 356.724h-55.442c-4.142 0-7.5 3.358-7.5 7.5s3.358 7.5 7.5 7.5h55.441c4.142 0 7.5-3.358 7.5-7.5s-3.357-7.5-7.499-7.5z"/><path d="m188.606 137.541v35.977c0 5.667 4.61 10.276 10.277 10.276h219.676c5.667 0 10.277-4.61 10.277-10.276v-35.977c0-5.667-4.61-10.277-10.277-10.277h-219.677c-5.666 0-10.276 4.611-10.276 10.277zm15 4.723h210.229v26.53h-210.229z"/><path d="m421.335 198.794h-91.112c-4.142 0-7.5 3.358-7.5 7.5s3.358 7.5 7.5 7.5h91.112c4.142 0 7.5-3.358 7.5-7.5s-3.358-7.5-7.5-7.5z"/><path d="m22.371 14.918 30.594 68.446v418.041c0 5.842 4.753 10.595 10.595 10.595h384.88c5.842 0 10.595-4.753 10.595-10.595v-418.041l30.594-68.446c3.134-7.011-2.004-14.918-9.673-14.918h-278.849c-4.174 0-7.971 2.462-9.673 6.271l-25.528 57.113-25.528-57.112c-1.703-3.81-5.5-6.272-9.673-6.272h-98.662c-7.678 0-12.802 7.916-9.672 14.918zm45.593 74.346h90.441v407.736h-90.441zm376.071 407.736h-270.629v-93.441h39.591c.517 1.096 1.032 2.192 1.544 3.288 4.384 9.385 13.049 16.004 23.008 17.956l2.869 12.727c1.708 7.577 8.325 12.869 16.092 12.869h104.638c7.767 0 14.384-5.292 16.093-12.868l2.869-12.728c9.959-1.951 18.625-8.57 23.008-17.956.512-1.096 1.027-2.192 1.544-3.288h39.373zm-113.812-152.513c4.142 0 7.5-3.358 7.5-7.5s-3.358-7.5-7.5-7.5h-113.073l.347-.347c.985-.985 2.295-1.528 3.689-1.528 5.328 0 10.341-2.048 14.141-5.77.063-.06.185-.183 3.277-3.275.985-.985 2.295-1.528 3.688-1.528h12.613c4.774 0 9.411-1.698 13.055-4.781l7.306-6.179c3.091-2.613 7.646-2.698 10.831-.204 8.037 6.296 19.543 5.599 26.762-1.62 5.968-5.968 14.542-5.28 19.588-.235l1.646 1.646c3.818 3.818 8.895 5.921 14.295 5.921h12.613c1.394 0 2.704.542 3.689 1.528l6.314 6.314c3.818 3.818 8.895 5.921 14.295 5.921h5.898c1.393 0 2.703.542 3.688 1.528l2.606 2.606h-32.269c-4.142 0-7.5 3.358-7.5 7.5s3.358 7.5 7.5 7.5h52.652c-9.075 16.609-18.914 35.811-28.349 56.012-2.809 6.013-8.912 9.899-15.549 9.899h-130.296c-6.637 0-12.74-3.886-15.549-9.899-8.692-18.611-18.22-37.475-28.348-56.012h130.44zm-96.133-40.719-15.868-51.063c-.538-1.732-.352-3.561.523-5.149 1.819-3.299 5.999-4.399 9.199-2.465 1.553.938 2.628 2.429 3.028 4.198l11.924 52.752c-2.954 0-5.673.335-8.806 1.727zm130.509 121.63-1.991 8.833c-.155.688-.755 1.167-1.46 1.167h-104.638c-.705 0-1.305-.48-1.459-1.167l-1.992-8.833zm-160.636-410.398h269.199l-26.49 59.264h-207.025c-4.142 0-7.5 3.358-7.5 7.5s3.358 7.5 7.5 7.5h204.388v299.294h-32.141c6.614-13.425 13.557-26.744 20.738-39.78 4.773-8.668-1.489-19.291-11.399-19.291h-2.527l-13.212-13.212c-3.818-3.818-8.895-5.921-14.295-5.921h-5.898c-1.393 0-2.703-.542-3.688-1.528l-6.314-6.314c-3.818-3.818-8.895-5.921-14.295-5.921h-12.613c-1.394 0-2.704-.542-3.689-1.528l-1.646-1.646c-10.797-10.797-28.849-11.717-40.801.235-1.863 1.862-4.831 2.042-6.906.417-8.757-6.86-21.277-6.624-29.767.56-5.355 4.529-7.347 6.22-7.541 6.366l-12.435-55.013c-1.309-5.787-4.826-10.664-9.905-13.731-10.533-6.361-24.172-2.667-30.089 8.063-2.864 5.196-3.472 11.177-1.711 16.842l17.234 55.457c-5.38.014-10.436 2.116-14.241 5.921l-10.963 10.963c-9.632.356-15.591 10.766-10.9 19.282 7.181 13.037 14.124 26.356 20.737 39.78h-32.36v-299.295h31.241c4.142 0 7.5-3.358 7.5-7.5s-3.358-7.5-7.5-7.5h-27.173zm-76.115 0 26.49 59.264h-89.011l-26.49-59.264z"/></g></svg>