<svg id="Capa_1" enable-background="new 0 0 512.004 512.004" height="512" viewBox="0 0 512.004 512.004" width="512" xmlns="http://www.w3.org/2000/svg"><g><path d="m1.606 325.274c2.09 2.771 5.691 3.859 8.961 2.707 22.09-7.772 44.113-18.327 65.46-31.37 17.443-10.66 39.338-9.727 55.78 2.382 3.444 2.536 7.059 5.115 10.835 7.71l-13.37 13.37c-4.286 4.287-3.59 11.427 1.457 14.79 1.645 1.096 3.315 2.191 5.012 3.287 17.304 11.179 40.061 9.87 56.086-2.821 3.278 1.571 6.614 3.104 10.004 4.589l-12.805 12.806c-4.807 4.803-3.242 12.951 2.989 15.627 4.459 1.917 8.979 3.745 13.434 5.434 18.482 7.009 39.539 2.651 53.581-11.391l3.562-3.563c22.351 4.07 45.106 4.973 71.047 1.87 4.113-.492 7.048-4.225 6.557-8.337-.492-4.114-4.241-7.05-8.338-6.556-37.055 4.431-72.814.737-114.008-15.525-.299-.118-.602-.216-.907-.293-26.342-10.5-52.746-25.774-76.24-43.076-21.369-15.738-49.828-16.957-72.496-3.104-14.521 8.873-29.352 16.537-44.286 22.894 5.061-11.316 8.024-23.332 8.887-35.466h22.457c4.143 0 7.5-3.358 7.5-7.5s-3.357-7.5-7.5-7.5h-22.458c-.864-12.135-3.826-24.15-8.887-35.466 14.933 6.356 29.765 14.021 44.286 22.894 10.547 6.444 22.665 9.74 35.017 9.54h131.547l.315.989c7.186 22.563 25.158 39.586 48.077 45.535 1.689.438 3.403.658 5.124.658 2.408 0-2.101.631 64.878-10.53 2.914 16.937 8.648 33.333 17.031 48.432-1.623.441-3.243.867-4.855 1.274-4.016 1.015-6.448 5.094-5.434 9.109 1.016 4.016 5.097 6.447 9.109 5.434 45.69-11.549 90.321-35.09 120.245-60.477.294-.217.573-.454.832-.71 10.596-9.09 21.913-20.769 21.913-29.182 0-13.394-28.686-35.067-37.478-41.39-11.392-8.194-32.09-21.615-59.715-33.435l-12.742-12.743c-26.131-26.13-62.031-41.164-98.497-41.245-24.768-.039-48.939 3.655-72.211 10.204-3.987 1.122-6.311 5.264-5.188 9.251 1.122 3.988 5.27 6.309 9.251 5.188 21.995-6.19 44.807-9.682 68.117-9.644 27.251.061 54.164 9.499 75.907 26.287-12.47-3.639-24.949-6.406-37.365-8.29-.15-.027-.299-.05-.449-.068-12.994-1.949-25.917-2.931-38.685-2.931-43.206 0-85.039 13.135-123.081 33.25v-16.862c7.003-3.507 14.086-6.761 21.086-9.685 3.822-1.597 5.626-5.99 4.028-9.812-1.597-3.822-5.989-5.625-9.812-4.029-8.005 3.345-16.109 7.099-24.088 11.158-3.833 1.95-6.215 5.84-6.215 10.151v27.479c-12.242 7.24-23.332 14.745-33.062 21.91-16.504 12.154-38.559 12.905-55.781 2.382-21.347-13.044-43.371-23.599-65.455-31.368-3.272-1.155-6.875-.067-8.965 2.706-2.09 2.771-2.145 6.532-.138 9.359 22.146 31.208 22.146 73.144.001 104.351-2.007 2.83-1.952 6.592.138 9.362zm142.967.713 10.855-10.855c6.604 4.17 13.598 8.306 20.943 12.297-9.986 4.833-22.054 4.511-31.798-1.442zm66.193 33.774c-1.806-.685-3.622-1.393-5.441-2.122l11.583-11.584c8.998 3.381 18.323 6.38 27.926 8.864-9.607 7.285-22.504 9.227-34.068 4.842zm-14.626-153.043c-1.925 10.429-3.32 20.959-4.172 31.489h-48.032c16.371-11.804 33.928-22.556 52.204-31.489zm45.154-17.636c-4.564 16.094-7.638 32.545-9.177 49.124h-25.098c1.115-13.113 3.117-26.223 5.972-39.111 9.078-3.774 18.532-7.167 28.303-10.013zm44.901-8.459c-7.083 18.598-11.734 37.896-13.877 57.584h-25.133c1.778-18.084 5.49-36 11.07-53.415 9.099-1.951 18.427-3.381 27.94-4.169zm43.107.756c-1.057 2.254-2.072 4.529-3.039 6.815-2.101 4.965 1.577 10.423 6.904 10.423 2.922 0 5.7-1.719 6.91-4.581 1.494-3.531 3.11-7.034 4.827-10.462 8.408 1.446 16.848 3.319 25.294 5.615-8.411 15.174-14.252 31.862-17.144 49.018h-25.301c.568-3.938 1.272-7.872 2.105-11.765.866-4.05-1.715-8.037-5.765-8.903-4.05-.865-8.037 1.714-8.903 5.765-1.054 4.927-1.917 9.917-2.58 14.903h-25.197c2.328-19.987 7.426-39.538 15.201-58.281 8.575-.019 17.583.457 26.688 1.453zm-40.113 103.934c-.753.126-1.515.093-2.258-.101-16.675-4.329-29.998-16.161-36.281-32.005h100.636c-.496 7.269-.473 14.537.055 21.749zm207.641-21.574c-1.152 2.515-5.716 8.349-14.783 16.345h-60.853c-4.143 0-7.5 3.358-7.5 7.5s3.357 7.5 7.5 7.5h41.565c-23.032 16.07-50.442 29.71-77.826 38.77-25.189-42.918-25.48-96.758.001-140.228 27.636 9.143 55.3 22.951 78.463 39.215 21.839 15.333 31.663 27.034 33.433 30.898z"/><path d="m379.027 240.406c0 14.079 11.454 25.532 25.532 25.532s25.532-11.454 25.532-25.532-11.454-25.532-25.532-25.532-25.532 11.454-25.532 25.532zm25.532-10.532c5.808 0 10.532 4.725 10.532 10.532s-4.725 10.532-10.532 10.532-10.532-4.725-10.532-10.532 4.724-10.532 10.532-10.532z"/></g></svg>