<svg id="Capa_1" enable-background="new 0 0 511.453 511.453" height="512" viewBox="0 0 511.453 511.453" width="512" xmlns="http://www.w3.org/2000/svg"><g><path d="m83.255 88.932c-16.495 21.642-29.635 45.401-39.105 70.693h-36.65c-4.143 0-7.5 3.357-7.5 7.5v69.344c0 20.576 2.332 41.089 6.931 60.97 6.122 26.469 23.14 49.447 46.689 63.043 1.983 1.146 2.665 3.691 1.521 5.674-6.843 11.85-5.811 26.433 2.628 37.152 6.569 8.346 13.696 16.375 21.183 23.867 31.284 32.998 70.74 57.207 114.112 70.017.659.194 1.324.294 1.979.307 22.996 6.606 47.876 10.139 72.096 10.227 15.555 0 31.969 4.53 48.38 1.284 16.863-3.337 30.429-13.917 44.218-19.636 14.096-5.845 31.062-7.975 45.137-17.398 14.144-9.467 22.656-24.444 33.296-35.081 10.673-10.676 25.612-19.15 35.082-33.297 9.422-14.075 11.562-31.063 17.397-45.137 5.719-13.79 16.299-27.351 19.636-44.219 3.241-16.379-1.284-32.983-1.284-48.351 0-15.428 4.525-31.968 1.284-48.352-3.336-16.863-13.921-30.44-19.636-44.219-5.846-14.097-7.975-31.061-17.398-45.138-9.496-14.183-24.404-22.615-35.081-33.295-10.676-10.673-19.15-25.612-33.297-35.082-14.075-9.422-31.063-11.562-45.137-17.397-13.79-5.719-27.351-16.299-44.219-19.636-16.374-3.241-32.979 1.284-48.351 1.284-14.551 0-30.126-4.036-45.619-1.754-3.76-3.949-5.892-6.031-18.695-18.835-2.172-2.173-5.446-2.801-8.267-1.587-23.186 9.971-44.961 23.127-64.724 39.103-7.938 6.416-12.49 15.983-12.49 26.25 0 5.195-4.228 9.423-9.423 9.423-9.604.002-18.836 4.591-24.693 12.276zm316.937 191.196c3.652 17.885 3.048 20.787-9.505 34.863-9.887 11.09-11.953 14.586-16.773 29.027-5.889 17.651-8.009 19.745-25.622 25.623-14.44 4.818-17.932 6.884-29.026 16.772-14.072 12.546-16.966 13.158-34.865 9.505-3.182-.65-6.426-1.312-9.734-1.759v-32.464c11.393 1.423 22.496 4.201 33.313-.284 9.487-3.934 15.569-12.198 20.935-19.49 6.766-9.196 8.094-10.522 17.282-17.282 7.292-5.365 15.557-11.447 19.49-20.935 3.791-9.143 2.384-18.736 1.023-28.015-1.719-11.716-1.718-13.887 0-25.596 1.36-9.278 2.768-18.872-1.023-28.015-3.934-9.487-12.198-15.569-19.49-20.935-9.196-6.766-10.522-8.094-17.282-17.282-5.365-7.292-11.447-15.557-20.935-19.49-10.911-4.523-22.443-1.642-33.313-.284v-32.464c10.602-1.432 20.871-5.147 28.509-3.106 9.823 2.625 18.026 14.587 29.352 21.14 11.415 6.605 25.943 7.848 32.983 14.89 7.023 7.021 8.306 21.603 14.891 32.983 6.564 11.344 18.513 19.52 21.14 29.353 2.506 9.373-3.653 22.604-3.653 36.009-.002 5.943 1.17 11.684 2.303 17.236zm-48.324-2.261c2.866 19.54 1.821 22.636-14.563 34.69-10.422 7.669-12.793 10.035-20.475 20.475-12.036 16.358-15.12 17.433-34.69 14.563-2.453-.36-4.948-.726-7.475-1v-31.226c7.488.948 14.814 1.733 21.556-2.167 7.118-4.118 10.128-11.381 12.783-17.788 2.647-6.384 3.08-7.099 7.096-12.256 4.078-5.235 9.154-11.751 9.154-20.266s-5.076-15.03-9.154-20.266c-4.003-5.141-4.447-5.863-7.095-12.256-2.656-6.407-5.667-13.67-12.784-17.786-6.932-4.012-14.67-3.036-21.499-2.175-.1.013-.057 1.512-.057-31.22 10.402-1.128 20.568-3.861 27.566-.962 9.033 3.745 14.825 16.814 23.803 25.795 8.978 8.975 22.037 14.74 25.795 23.803 3.579 8.629-1.41 21.972-1.41 35.066.001 5.106.737 10.123 1.449 14.976zm-56.72-41.752c3.198 7.71 4.315 9.564 9.119 15.729 7.974 10.238 7.972 11.861 0 22.096-4.818 6.183-5.936 8.047-9.119 15.73-5.335 12.871-6.2 12.299-20.482 10.582v-74.721c14.301-1.72 15.149-2.282 20.482 10.584zm-35.482 256.468c-15.037-.517-30.226-2.412-44.89-5.584 15.209-9.317 30.226-19.095 44.89-29.23zm7.5-453.525c16.217 0 31.93-4.241 45.439-1.569 13.979 2.765 26.802 12.73 41.384 18.776 14.808 6.142 30.918 8.228 42.538 16.007 11.738 7.858 19.73 21.918 31.034 33.225 11.171 11.168 25.407 19.358 33.224 31.033 7.799 11.647 9.841 27.671 16.008 42.538 6.062 14.615 16.006 27.381 18.776 41.384 2.67 13.501-1.569 29.245-1.569 45.44 0 16.204 4.243 31.921 1.569 45.439-2.766 13.979-12.73 26.802-18.776 41.384-6.142 14.808-8.228 30.919-16.007 42.538-7.858 11.738-21.918 19.73-33.225 31.034-11.168 11.171-19.356 25.409-31.033 33.224-11.647 7.799-27.671 9.841-42.538 16.008-14.604 6.056-27.387 16.007-41.383 18.776-11.433 2.262-24.357-.417-37.941-1.305v-36.11c9.964 1.848 20.714 5.922 31.817 3.724 14.352-2.838 24.43-14.955 34.632-19.185 10.524-4.365 25.988-2.865 38.041-10.935 12.124-8.116 16.644-23.018 24.615-30.989 7.915-7.915 22.897-12.53 30.988-24.614 8.086-12.079 6.557-27.481 10.935-38.042 2.973-7.169 9.924-14.391 14.687-22.915 2.02-3.616.727-8.186-2.89-10.206-3.618-2.02-8.186-.727-10.206 2.89-4.285 7.672-11.574 15.147-15.446 24.486-5.147 12.41-3.932 27.061-9.544 35.442-5.67 8.472-19.681 12.901-29.13 22.353-9.416 9.414-13.899 23.472-22.354 29.131-8.375 5.609-23.044 4.403-35.442 9.544-12.219 5.065-21.676 16.323-31.796 18.325-7.933 1.566-18.241-2.639-28.907-4.216v-32.346c10.384 1.709 21.296 5.392 32.382 2.431 14.312-3.826 23.274-17.024 32.991-22.648 10.011-5.791 25.67-6.859 36.079-17.268 10.406-10.406 11.477-26.073 17.267-36.078 5.605-9.689 18.83-18.709 22.647-32.99 3.742-14.004-3.146-28.03-3.146-39.882 0-11.861 6.888-25.875 3.146-39.882-3.826-14.312-17.024-23.274-22.648-32.991-5.79-10.011-6.859-25.67-17.267-36.079-10.409-10.407-26.07-11.475-36.079-17.267-9.689-5.605-18.709-18.83-32.99-22.647-11.093-2.964-22.074.735-32.382 2.431v-24.175c0-4.66 3.192-8.643 7.764-9.684 7.103-1.618 15.024-3.911 21.144-2.703 10.132 2.004 19.537 13.242 31.795 18.324 12.388 5.139 27.077 3.943 35.442 9.544 8.46 5.664 12.922 19.701 22.353 29.13 9.438 9.438 23.466 13.89 29.131 22.353 5.622 8.398 4.384 22.998 9.544 35.443 5.067 12.223 16.323 21.676 18.325 31.796 1.926 9.738-4.81 22.822-4.81 36.407 0 5.148.972 10.191 1.922 14.444.903 4.042 4.911 6.589 8.954 5.685 4.043-.902 6.588-4.912 5.685-8.954-.771-3.455-1.561-7.484-1.561-11.175 0-11.568 7.309-25.238 4.524-39.317-2.838-14.352-14.955-24.43-19.185-34.632-4.361-10.516-2.868-25.993-10.935-38.041-8.12-12.13-23.017-16.643-30.989-24.615-7.915-7.915-12.53-22.897-24.614-30.988-12.079-8.086-27.481-6.556-38.041-10.935-10.223-4.24-20.28-16.346-34.631-19.184-9.357-1.852-18.281.719-27.385 2.793-11.441 2.605-19.433 12.602-19.433 24.309v23.075c-3.792-1.745-7.746-3.203-11.837-4.363-3.457-.979-5.513-4.602-4.582-8.075 6.174-23.039 2.364-46.923-10.117-66.303 10.636.182 22.194 2.442 34.037 2.442zm-159.217 52.6c13.467 0 24.423-10.956 24.423-24.423 0-5.714 2.522-11.029 6.92-14.584 17.374-14.045 36.389-25.785 56.586-34.942 7.932 7.932 12.215 12.121 17.315 17.606 15.865 17.065 21.684 40.887 15.565 63.721-3.042 11.351 3.68 23.188 14.981 26.39 5.677 1.609 11.018 3.916 15.926 6.875v98.72c-12.625-11.639-26.334-22.062-40.924-31.102-3.521-2.183-8.144-1.097-10.325 2.425-2.182 3.521-1.097 8.144 2.425 10.325 16.655 10.321 32.096 22.548 45.983 36.408-29.541 32.86-50.429 72.35-61.065 114.762-5.48-4.669-10.903-9.407-16.269-14.211v-84.939c0-4.143-3.357-7.5-7.5-7.5s-7.5 3.357-7.5 7.5v71.195c-15.067-14.128-29.645-28.787-43.689-43.936v-66.823c0-4.143-3.357-7.5-7.5-7.5s-7.5 3.357-7.5 7.5v50.229c-19.93-22.616-31.153-37.375-50.494-62.072-2.553-3.263-7.269-3.834-10.528-1.28-3.262 2.554-3.835 7.268-1.28 10.528 23.081 29.471 45.053 58.529 84.359 98.532h-57.777c-4.143 0-7.5 3.357-7.5 7.5s3.357 7.5 7.5 7.5h72.869c10.881 10.563 22.027 20.849 33.421 30.842h-51.499c-4.143 0-7.5 3.357-7.5 7.5s3.357 7.5 7.5 7.5h67.012c-1.923 10.751-3.196 21.652-3.793 32.644-.225 4.136 2.946 7.671 7.082 7.896 4.126.202 7.671-2.945 7.896-7.082 2.917-53.643 22.854-104.975 56.597-146.528v170.633c-18.475 13.071-37.581 25.589-56.979 37.332v-26.637c0-4.143-3.357-7.5-7.5-7.5s-7.5 3.357-7.5 7.5v29.58c-37.081-12.669-70.767-34.296-97.917-62.956-1.736-1.847-10.092-9.895-20.216-22.756-4.621-5.87-5.181-13.867-1.424-20.373 5.28-9.147 2.135-20.885-7.011-26.165-19.962-11.524-34.387-31-39.576-53.434-4.341-18.773-6.543-38.148-6.543-57.588v-61.844h61.844c26.797 0 52.936 4.079 78.008 12.151 1.197.855 2.649 1.365 4.205 1.394 6.792 2.319 13.503 4.933 20.125 7.842 3.795 1.664 8.218-.059 9.883-3.852 1.665-3.792-.059-8.217-3.852-9.883-6.206-2.725-12.485-5.207-18.831-7.444-.143-3.22-.205-6.442-.188-9.663l46.644-25.841c3.623-2.008 4.933-6.572 2.926-10.195-2.007-3.624-6.573-4.932-10.195-2.926l-38.485 21.321c1.021-10.677 2.914-21.269 5.655-31.64l35.979-19.88c3.626-2.003 4.94-6.566 2.938-10.191-2.003-3.627-6.566-4.943-10.191-2.938l-21.931 12.118c1.871-4.814 1.591-4.042 17.042-39.539 1.653-3.798-.086-8.217-3.884-9.87-3.797-1.65-8.216.087-9.87 3.884-14.26 32.761-18.716 41.776-23.57 58.885-.399 1.123-3 10.737-4.797 20.869l-29.274-21.874c-3.317-2.479-8.019-1.799-10.497 1.519-2.479 3.318-1.8 8.018 1.519 10.497l35.94 26.855c-.752 7.908-1.058 15.856-.916 23.77-24.028-6.891-48.926-10.369-74.381-10.369h-16.614c8.768-21.956 20.498-42.635 34.953-61.601 3.039-3.987 7.81-6.367 12.764-6.367z"/></g></svg>